<svg width="38" height="38" viewBox="0 0 38 38" fill="none" xmlns="http://www.w3.org/2000/svg">
<circle cx="19" cy="19" r="19" fill="black"/>
<path d="M17.2148 7.6H20.8308L20.2228 22.928H17.7908L17.2148 7.6ZM19.0388 30.192C18.4414 30.192 17.9401 30 17.5348 29.616C17.1294 29.2107 16.9268 28.72 16.9268 28.144C16.9268 27.568 17.1294 27.088 17.5348 26.704C17.9401 26.2987 18.4414 26.096 19.0388 26.096C19.6361 26.096 20.1268 26.2987 20.5108 26.704C20.8948 27.088 21.0868 27.568 21.0868 28.144C21.0868 28.72 20.8841 29.2107 20.4788 29.616C20.0948 30 19.6148 30.192 19.0388 30.192Z" fill="#FFDE16"/>
</svg>
